#N canvas 173 76 902 663 10;
#X obj 88 14 inlet;
#X obj 197 15 inlet;
#X obj 88 41 bng 15 250 50 0 empty empty empty 17 7 0 10 -262144 -1
-1;
#X obj 204 89 \$1;
#X obj 187 111 \$2;
#X text 228 112 mouvement x;
#X obj 170 134 \$3;
#X text 211 135 mouvement y;
#X obj 154 158 \$4;
#X text 196 159 mouvement z;
#X obj 137 182 \$5;
#X text 239 90 apparition x au centre à droite à gauche;
#X text 170 185 temps apparition mini;
#X text 154 208 random temps;
#X text 151 230 min fade in/out;
#X text 132 252 random fade;
#X obj 121 204 \$6;
#X obj 104 227 \$7;
#X obj 88 251 \$8;
#X floatatom 350 570 5 0 0 0 - - -, f 5;
#X obj 350 591 s tXg;
#X obj 200 711 s tFg;
#X obj 350 467 pack f f;
#X obj 350 546 line;
#X obj 403 412 + 2;
#X obj 403 388 random 15;
#X obj 403 435 * 1000;
#X obj 403 363 t b f;
#X floatatom 200 680 5 0 0 0 - - -, f 5;
#X obj 200 599 pack f f;
#X obj 253 503 + 2;
#X obj 253 479 random 15;
#X obj 253 526 * 1000;
#X msg 144 639 0;
#X msg 200 572 1;
#X obj 88 62 t b b b b b b b b;
#X obj 88 297 t b b f;
#X obj 88 329 t b b b;
#X obj 23 391 metro 100;
#X obj 23 433 f;
#X obj 53 433 + 1;
#X msg 51 411 0;
#X obj 23 374 tgl 15 0 empty empty empty 17 7 0 10 -262144 -1 -1 0
1;
#X floatatom 23 456 5 0 0 0 - - -, f 5;
#X msg 23 354 0;
#X msg 54 356 1;
#X obj 23 506 t b b b b;
#X obj 291 741 f;
#X obj 291 765 -;
#X obj 291 717 t b f;
#X obj 53 276 \$9;
#X text 86 276 noir a la fin;
#X obj 291 791 - 2000;
#X obj 329 769 * 1000;
#X msg 167 573 0;
#X obj 45 736 bng 15 250 50 0 empty empty empty 17 7 0 10 -262144 -1
-1;
#X obj 43 911 outlet;
#X floatatom 658 178 5 0 0 0 - - -, f 5;
#X msg 350 492 \$1 \$2;
#X msg 200 625 \$1 \$2;
#X msg 410 493 4 3000;
#X obj 350 438 f;
#X floatatom 112 472 5 0 0 0 - - -, f 5;
#X floatatom 155 90 5 0 0 0 - - -, f 5;
#X floatatom 139 112 5 0 0 0 - - -, f 5;
#X floatatom 122 136 5 0 0 0 - - -, f 5;
#X floatatom 108 159 5 0 0 0 - - -, f 5;
#X floatatom 90 180 5 0 0 0 - - -, f 5;
#X floatatom 74 202 5 0 0 0 - - -, f 5;
#X floatatom 57 226 5 0 0 0 - - -, f 5;
#X floatatom 43 249 5 0 0 0 - - -, f 5;
#X floatatom 13 274 5 0 0 0 - - -, f 5;
#X obj 62 454 / 100;
#X floatatom 492 606 5 0 0 0 - - -, f 5;
#X obj 492 503 pack f f;
#X obj 492 582 line;
#X msg 492 528 \$1 \$2;
#X obj 492 474 f;
#X text 453 434 duree total apparition;
#X floatatom 565 610 5 0 0 0 - - -, f 5;
#X obj 565 507 pack f f;
#X obj 565 586 line;
#X msg 565 532 \$1 \$2;
#X obj 565 478 f;
#X obj 583 454 t f b;
#X msg 613 477 0;
#X text 648 477 Zoom init;
#X obj 565 631 s tZg;
#X floatatom -14 295 5 0 0 0 - - -, f 5;
#X obj 26 297 \$10;
#X obj 68 786 f;
#X obj 68 870 s done;
#X obj 492 627 s tYg;
#X msg 531 476 0;
#X obj 510 450 t f b;
#X text 44 316 G0D1;
#X floatatom 32 131 5 0 0 0 - - -, f 5;
#X obj 32 108 \$11;
#X obj 0 62 r scenario;
#X obj 0 85 t f b;
#X obj 0 129 sel;
#X obj 0 152 bng 15 250 50 0 empty empty empty 17 7 0 10 -262144 -1
-1;
#X msg 419 534 stop;
#X text 284 504 tps fade;
#X floatatom 274 550 5 0 0 0 - - -, f 5;
#X floatatom 418 470 5 0 0 0 - - -, f 5;
#X floatatom 291 816 5 0 0 0 - - -, f 5;
#X text 274 682 temps avant fade;
#X text 471 254 num scenar;
#X text 427 179 X mX mY mZ tm tr fm fr tb GD Ns;
#X obj 404 179 bng 15 250 50 0 empty empty empty 17 7 0 10 -250450
-162860 -1;
#X obj 1 485 bng 15 250 50 0 empty empty empty 17 7 0 10 -262144 -1
-1;
#X obj 253 572 f;
#X obj 200 656 line 0;
#X obj 112 448 / 10;
#X floatatom 658 161 5 0 0 0 - - -, f 5;
#X obj 401 608 r linestop;
#X obj 23 481 sel 12;
#X obj 101 507 sel 12;
#X floatatom 204 500 5 0 0 0 - - -, f 5;
#X obj 154 482 / 100;
#X obj 36 604 t b b b b;
#X connect 0 0 2 0;
#X connect 2 0 110 0;
#X connect 3 0 23 0;
#X connect 3 0 63 0;
#X connect 4 0 61 1;
#X connect 4 0 64 0;
#X connect 6 0 65 0;
#X connect 6 0 94 0;
#X connect 8 0 66 0;
#X connect 8 0 84 0;
#X connect 10 0 24 1;
#X connect 10 0 67 0;
#X connect 16 0 27 0;
#X connect 16 0 68 0;
#X connect 17 0 30 1;
#X connect 17 0 69 0;
#X connect 18 0 36 0;
#X connect 18 0 70 0;
#X connect 19 0 20 0;
#X connect 22 0 58 0;
#X connect 23 0 19 0;
#X connect 24 0 26 0;
#X connect 24 0 57 0;
#X connect 25 0 24 0;
#X connect 26 0 22 1;
#X connect 26 0 47 1;
#X connect 26 0 74 1;
#X connect 26 0 80 1;
#X connect 26 0 105 0;
#X connect 26 0 120 0;
#X connect 27 0 25 0;
#X connect 27 1 25 1;
#X connect 28 0 21 0;
#X connect 29 0 59 0;
#X connect 30 0 32 0;
#X connect 31 0 30 0;
#X connect 32 0 49 0;
#X connect 32 0 104 0;
#X connect 32 0 112 0;
#X connect 34 0 29 0;
#X connect 35 0 18 0;
#X connect 35 0 50 0;
#X connect 35 0 89 0;
#X connect 35 1 17 0;
#X connect 35 2 16 0;
#X connect 35 3 10 0;
#X connect 35 4 8 0;
#X connect 35 5 6 0;
#X connect 35 6 4 0;
#X connect 35 7 3 0;
#X connect 36 0 37 0;
#X connect 36 1 31 0;
#X connect 36 2 31 1;
#X connect 37 0 45 0;
#X connect 37 1 34 0;
#X connect 37 2 33 0;
#X connect 37 2 61 0;
#X connect 37 2 77 0;
#X connect 37 2 83 0;
#X connect 38 0 39 0;
#X connect 39 0 40 0;
#X connect 39 0 43 0;
#X connect 40 0 39 1;
#X connect 41 0 39 1;
#X connect 42 0 38 0;
#X connect 43 0 114 0;
#X connect 43 0 117 0;
#X connect 43 0 118 0;
#X connect 44 0 42 0;
#X connect 45 0 42 0;
#X connect 46 0 54 0;
#X connect 46 1 112 0;
#X connect 47 0 48 0;
#X connect 48 0 52 0;
#X connect 49 0 47 0;
#X connect 49 1 48 1;
#X connect 50 0 53 0;
#X connect 50 0 71 0;
#X connect 52 0 72 0;
#X connect 52 0 106 0;
#X connect 53 0 52 1;
#X connect 54 0 29 0;
#X connect 55 0 56 0;
#X connect 55 0 90 0;
#X connect 58 0 23 0;
#X connect 59 0 113 0;
#X connect 60 0 23 0;
#X connect 61 0 22 0;
#X connect 72 0 62 0;
#X connect 72 0 117 1;
#X connect 73 0 92 0;
#X connect 74 0 76 0;
#X connect 75 0 73 0;
#X connect 76 0 75 0;
#X connect 77 0 74 0;
#X connect 79 0 87 0;
#X connect 80 0 82 0;
#X connect 81 0 79 0;
#X connect 82 0 81 0;
#X connect 83 0 80 0;
#X connect 84 0 83 1;
#X connect 84 1 85 0;
#X connect 85 0 81 0;
#X connect 89 0 88 0;
#X connect 89 0 90 1;
#X connect 90 0 91 0;
#X connect 93 0 75 0;
#X connect 94 0 77 1;
#X connect 94 1 93 0;
#X connect 97 0 96 0;
#X connect 97 0 100 1;
#X connect 98 0 99 0;
#X connect 99 0 100 0;
#X connect 99 1 97 0;
#X connect 100 0 101 0;
#X connect 100 0 2 0;
#X connect 102 0 23 0;
#X connect 102 0 75 0;
#X connect 102 0 81 0;
#X connect 102 0 113 0;
#X connect 110 0 35 0;
#X connect 111 0 46 0;
#X connect 112 0 29 1;
#X connect 113 0 28 0;
#X connect 114 0 115 0;
#X connect 116 0 102 0;
#X connect 117 0 46 0;
#X connect 118 0 121 0;
#X connect 120 0 119 0;
#X connect 120 0 118 1;
#X connect 121 1 55 0;
#X connect 121 2 41 0;
#X connect 121 3 44 0;
#X coords 0 -1 1 1 300 60 1 400 140;
