#N canvas 19 76 1171 496 10;
#X obj 3 2 cnv 15 1500 1200 empty empty Diaporama 20 24 0 24 -252345
-66577 0;
#X obj 49 758 bng 15 250 50 0 empty empty empty 0 -6 0 8 -262144 -1
-1;
#N canvas 0 50 450 300 openpanel 0;
#X obj 114 62 inlet;
#X obj 121 254 outlet;
#X obj 114 125 openpanel;
#X msg 114 162 set open \$1;
#X obj 114 199 t b a;
#X connect 0 0 2 0;
#X connect 2 0 3 0;
#X connect 3 0 4 0;
#X connect 4 0 1 0;
#X connect 4 1 1 0;
#X restore 49 779 pd openpanel;
#X symbolatom 785 490 0 0 0 0 - - -;
#X msg 616 295 seek \$1;
#X obj 722 316 loadbang;
#X msg 716 515 open \$1;
#X obj 716 380 playlist jpg 300 100 {Helvetica 12 normal} grey yellow
black red;
#X obj 513 512 pix_image;
#X obj 513 287 gemhead 12;
#X floatatom 616 782 4 0 0 1 width - -, f 4;
#X floatatom 626 764 4 0 0 1 height - -, f 4;
#X floatatom 636 746 4 0 0 1 bytes/pixel - -, f 4;
#X floatatom 646 729 5 0 0 1 coulorspace - -, f 5;
#X obj 606 708 pix_info . . . .;
#X obj 513 707 pix_texture;
#X obj 513 910 rectangle 5.334 4;
#X obj 513 806 alpha;
#X obj 733 796 /;
#X floatatom 733 818 5 0 0 0 - - -, f 5;
#X obj 746 885 / 1;
#X obj 733 838 t b b f;
#X obj 513 264 tgl 15 0 empty empty empty 17 7 0 10 -262144 -1 -1 0
1;
#X obj 1574 942 cnv 15 100 60 empty empty empty 20 12 0 14 -233017
-66577 0;
#X obj 1612 912 cnv 15 100 60 empty empty empty 20 12 0 14 -233017
-66577 0;
#X obj 1593 935 cnv 15 100 60 empty empty empty 20 12 0 14 -233017
-66577 0;
#X obj 1606 936 cnv 15 100 60 empty empty empty 20 12 0 14 -233017
-66577 0;
#X obj 39 716 fromsymbol;
#X obj 513 680 pix_gain;
#X obj 513 601 pix_contrast;
#X floatatom 553 563 5 0 0 1 contrast - -, f 5;
#X floatatom 596 581 5 0 0 1 saturation - -, f 5;
#X floatatom 539 658 5 0 0 1 Gain - -, f 5;
#X obj 513 408 translateXYZ;
#X msg 709 640 -1;
#X obj 5 42 cnv 15 300 600 empty empty Ecran 20 12 0 21 -204786 -66577
0;
#X msg 44 461 0 \, destroy;
#X msg 16 527 color 1 1 1;
#X msg 17 319 dimen 640 480 \, offset 0 0 \, border 1 \, cursor 1 \,
create \, 1;
#X msg 32 549 color 0 0 0;
#X msg 30 435 create \, 1;
#X msg 5 291 dimen 1024 768 \, offset 1920 0 \, border 0 \, cursor
0 \, create \, 1;
#X obj 91 495 gemkeyname;
#X symbolatom 158 521 10 0 0 0 keyName - -, f 10;
#X obj 158 545 sel Escape;
#X obj 83 140 tgl 52 0 empty empty ON/OFF 10 -12 0 10 -191936 -258113
-1 0 1;
#X obj 80 197 sel 1;
#X obj 542 639 hsl 100 15 -15 15 0 0 empty empty Gain -2 -8 0 10 -228856
-1 -1 0 1;
#X msg 743 640 1;
#X obj 557 546 hsl 100 15 -15 15 0 0 empty empty contrast -2 -8 0 10
-1 -262144 -1 0 1;
#X obj 688 566 hsl 100 15 -15 15 0 0 empty empty Saturation -2 -8 0
10 -257985 -258113 -1 0 1;
#X obj 513 474 colorRGB 1 1 1 0;
#X obj 622 364 vsl 15 80 0 1 0 0 empty empty empty 0 -9 0 10 -128992
-262144 -1 6715 1;
#X floatatom 622 452 5 0 0 0 - - -, f 5;
#X obj 271 775 gemhead 12;
#X obj 271 752 tgl 15 0 empty empty empty 17 7 0 10 -262144 -1 -1 0
1;
#X obj 271 813 colorRGB 1 0 0 0.8;
#X floatatom 319 846 5 0 0 0 - - -, f 5;
#X floatatom 373 852 5 0 0 0 - - -, f 5;
#X floatatom 527 330 0 0 0 0 - - -;
#X floatatom 559 351 5 0 0 0 - - -, f 5;
#X floatatom 579 387 5 0 0 0 - - -, f 5;
#X obj 271 889 rectangle 0.01 4;
#X floatatom 571 882 5 0 0 0 - - -, f 5;
#X floatatom 629 884 5 0 0 0 - - -, f 5;
#X msg 697 860 4;
#X msg 745 861 4;
#X obj 527 308 r tXg;
#X obj 563 329 r tYg;
#X obj 579 370 r tZg;
#X obj 622 339 r tFg;
#X text 1025 571 X: d-16.8 -8.78 -6.39 -4 4 6.39 8.78 d16.8;
#X text 1095 590 Y: d-8 0 d8;
#X obj 271 707 loadbang;
#X msg 271 729 0;
#X obj 65 850 tgl 15 0 empty empty empty 0 -6 0 8 -262144 -1 -1 0 1
;
#X msg 65 868 graphics \$1;
#X msg 65 831 1;
#X msg 64 805 font Helvetica normal 12;
#X obj 940 55 tgl 49 0 empty empty Diapo_ON_OFF 0 -15 0 18 -261245
-1 -1 1 1;
#X obj 647 92 random 3;
#X obj 647 53 bng 32 250 50 0 empty empty Rép 10 10 0 10 -261682 -1
-1;
#X floatatom 646 115 5 0 0 0 - - -, f 5;
#X floatatom 616 273 5 0 0 0 - - -, f 5;
#X obj 646 162 t b b b;
#X obj 704 164 t b b b;
#X obj 763 163 t b b b;
#X msg 809 187 5;
#X text 698 217 indus nature nuit;
#X obj 518 70 r done;
#X obj 646 138 sel 0 1 2;
#X obj 518 101 sel 0;
#X obj 518 154 f;
#X obj 548 154 + 1;
#X msg 536 132 0;
#X floatatom 518 178 5 0 0 0 - - -, f 5;
#X obj 518 201 sel 5;
#X obj 618 219 t b;
#X msg 413 94 5;
#X obj 413 71 loadbang;
#X floatatom 413 117 5 0 0 0 - - -, f 5;
#X obj 413 166 random 2;
#X obj 413 191 + 5;
#X text 190 95 switch rép tt 5 images + aléat;
#X obj 723 483 t a b;
#X floatatom 823 546 5 0 0 0 - - -, f 5;
#X obj 823 567 hradio 15 1 0 12 empty empty empty 0 -8 0 10 -262144
-1 -1 0;
#X text 805 621 X mvX mY mZ tpsmin tpsrand fademin faderan tpsblack
G0D1;
#X text 1210 622 num scenar;
#X obj 823 588 s scenario;
#X floatatom 413 216 5 0 0 0 - - -, f 5;
#X obj 413 140 t b f f;
#X msg 665 528 1;
#X msg 614 529 -3.18;
#X msg 644 495 thread 0;
#X obj 644 473 loadbang;
#X obj 563 200 spigot;
#X obj 730 126 sel 1;
#X obj 481 118 bng 32 250 50 0 empty empty empty 17 7 0 10 -258113
-4034 -1;
#X obj 518 224 t b b;
#X obj 607 182 tgl 15 0 empty empty empty 17 7 0 10 -262144 -1 -1 1
1;
#X obj 771 142 s linestop;
#X obj 775 125 bng 15 250 50 0 empty empty empty 17 7 0 10 -262144
-1 -1;
#X obj 312 411 adc~;
#X obj 312 437 env~;
#X floatatom 312 484 5 0 0 0 - - -, f 5;
#X obj 312 461 spigot;
#X obj 355 428 tgl 32 0 empty empty Audio_mod 10 16 0 10 -4034 -258113
-1 0 1;
#X floatatom 312 529 5 0 0 0 - - -, f 5;
#X obj 486 484 tgl 15 0 empty empty empty 17 7 0 10 -262144 -1 -1 0
1;
#X msg 808 287 location /home/gedeon/Bureau/SophieC/nuit;
#X msg 807 310 location /home/gedeon/Bureau/SophieC/nature;
#X msg 798 334 location /home/gedeon/Bureau/SophieC/industrie;
#X msg 750 188 12;
#X msg 692 186 34;
#X obj 4 568 gemwin 60;
#X obj 226 412 key;
#X obj 226 443 sel 27;
#X obj 862 920 move-Diapo -6 6 2 3 15 5 3 5 0 0 4;
#X obj 861 989 move-Diapo 14 0 1 1 10 3 4 1 0 0 5;
#X obj 1165 647 move-Diapo 6 -6 2 3 15 5 3 5 0 0 6;
#X obj 1164 709 move-Diapo -4 -4 0 0 2 1 1 0 0 0 7;
#X obj 1604 978 cnv 15 100 60 empty empty empty 20 12 0 14 -233017
-66577 0;
#X obj 1747 1229 cnv 15 100 60 empty empty empty 20 12 0 14 -233017
-66577 0;
#X obj 860 643 move-Diapo -4 10.8 0 0 8 4 3 3 0 0 0;
#X obj 859 709 move-Diapo 8 -4 0 0 6 2 2 2 0 0 1;
#X obj 823 522 random 11;
#X msg 81 592 0;
#X msg 112 592 2;
#X msg 141 592 4;
#X msg 202 592 8;
#X msg 172 592 5;
#X msg 123 642 FSAA \$1;
#X msg 26 347 dimen 640 200 \, offset 0 0 \, border 1 \, cursor 0 \,
create \, 1;
#X msg 10 263 dimen 2560 800 \, offset 0 0 \, border 0 \, cursor 0
\, create \, 1;
#X obj 1165 918 move-Diapo -6.5 -6.5 0 0 2 1 1 1 0 0 10;
#X obj 1165 849 move-Diapo 7 7 0 0 2 1 1 0 1 0 9;
#X obj 1163 777 move-Diapo 5 5 0 0 2 1 1 1 1 0 8;
#X floatatom 359 467 5 0 0 0 - - -, f 5;
#X floatatom 401 462 5 0 0 0 - - -, f 5;
#X floatatom 448 445 5 0 0 0 - - -, f 5;
#X floatatom 401 481 5 0 0 0 - - -, f 5;
#X obj 616 250 rtc/xrandom 14;
#X obj 336 371 gemkeyname;
#X symbolatom 427 373 10 0 0 0 keyName - -, f 10;
#X obj 440 422 sel q;
#X msg 399 440 0;
#X obj 388 398 sel s;
#X msg 352 396 1;
#X obj 312 505 maxlib/scale 80 95 -10 3;
#X obj 859 776 move-Diapo -6 -4 0 1 6 3 2 1 0 0 2;
#X obj 862 849 move-Diapo 6 4 0 1 6 3 2 1 0 0 3;
#X connect 1 0 2 0;
#X connect 4 0 7 0;
#X connect 5 0 132 0;
#X connect 6 0 8 0;
#X connect 7 0 3 0;
#X connect 7 0 104 0;
#X connect 8 0 14 0;
#X connect 8 0 29 0;
#X connect 9 0 33 0;
#X connect 10 0 18 0;
#X connect 11 0 18 1;
#X connect 14 1 10 0;
#X connect 14 2 11 0;
#X connect 14 3 12 0;
#X connect 14 4 13 0;
#X connect 15 0 17 0;
#X connect 17 0 16 0;
#X connect 18 0 19 0;
#X connect 19 0 21 0;
#X connect 20 0 64 0;
#X connect 21 0 65 0;
#X connect 21 1 66 0;
#X connect 21 2 20 1;
#X connect 22 0 9 0;
#X connect 28 0 15 0;
#X connect 29 0 28 0;
#X connect 30 0 29 1;
#X connect 31 0 29 2;
#X connect 32 0 28 1;
#X connect 33 0 51 0;
#X connect 34 0 32 0;
#X connect 36 0 135 0;
#X connect 37 0 135 0;
#X connect 38 0 135 0;
#X connect 39 0 135 0;
#X connect 40 0 135 0;
#X connect 41 0 135 0;
#X connect 42 1 43 0;
#X connect 43 0 44 0;
#X connect 44 0 36 0;
#X connect 45 0 46 0;
#X connect 46 0 38 0;
#X connect 46 1 36 0;
#X connect 47 0 32 0;
#X connect 48 0 32 0;
#X connect 49 0 30 0;
#X connect 50 0 31 0;
#X connect 51 0 8 0;
#X connect 52 0 53 0;
#X connect 53 0 51 4;
#X connect 54 0 56 0;
#X connect 55 0 54 0;
#X connect 56 0 62 0;
#X connect 57 0 62 1;
#X connect 58 0 62 2;
#X connect 59 0 33 1;
#X connect 60 0 33 2;
#X connect 61 0 33 3;
#X connect 63 0 16 1;
#X connect 64 0 16 2;
#X connect 65 0 63 0;
#X connect 66 0 20 0;
#X connect 67 0 59 0;
#X connect 68 0 60 0;
#X connect 69 0 61 0;
#X connect 70 0 52 0;
#X connect 73 0 74 0;
#X connect 74 0 55 0;
#X connect 75 0 76 0;
#X connect 77 0 75 0;
#X connect 79 0 117 0;
#X connect 79 0 120 0;
#X connect 80 0 82 0;
#X connect 81 0 80 0;
#X connect 82 0 90 0;
#X connect 83 0 4 0;
#X connect 84 0 162 0;
#X connect 84 1 132 0;
#X connect 84 2 134 0;
#X connect 85 0 162 0;
#X connect 85 1 131 0;
#X connect 85 2 133 0;
#X connect 86 0 162 0;
#X connect 86 1 130 0;
#X connect 86 2 87 0;
#X connect 87 0 162 1;
#X connect 89 0 91 0;
#X connect 90 0 84 0;
#X connect 90 1 85 0;
#X connect 90 2 86 0;
#X connect 91 0 92 0;
#X connect 91 0 118 0;
#X connect 92 0 93 0;
#X connect 92 0 95 0;
#X connect 93 0 92 1;
#X connect 94 0 92 1;
#X connect 95 0 96 0;
#X connect 96 0 119 0;
#X connect 96 1 116 0;
#X connect 97 0 162 0;
#X connect 98 0 100 0;
#X connect 99 0 98 0;
#X connect 100 0 111 0;
#X connect 101 0 102 0;
#X connect 102 0 96 1;
#X connect 102 0 110 0;
#X connect 104 0 6 0;
#X connect 104 1 146 0;
#X connect 105 0 106 0;
#X connect 106 0 109 0;
#X connect 111 0 101 0;
#X connect 111 1 102 1;
#X connect 111 2 101 1;
#X connect 112 0 49 0;
#X connect 112 0 50 0;
#X connect 113 0 49 0;
#X connect 114 0 8 0;
#X connect 115 0 114 0;
#X connect 116 0 97 0;
#X connect 117 0 81 0;
#X connect 117 1 121 0;
#X connect 119 0 81 0;
#X connect 119 1 94 0;
#X connect 120 0 116 1;
#X connect 123 0 124 0;
#X connect 124 0 126 0;
#X connect 125 0 169 0;
#X connect 126 0 125 0;
#X connect 127 0 126 1;
#X connect 128 0 49 0;
#X connect 129 0 169 5;
#X connect 130 0 7 0;
#X connect 131 0 7 0;
#X connect 132 0 7 0;
#X connect 133 0 162 1;
#X connect 134 0 162 1;
#X connect 136 0 137 0;
#X connect 137 0 36 0;
#X connect 146 0 105 0;
#X connect 147 0 152 0;
#X connect 148 0 152 0;
#X connect 149 0 152 0;
#X connect 150 0 152 0;
#X connect 151 0 152 0;
#X connect 152 0 135 0;
#X connect 153 0 135 0;
#X connect 154 0 135 0;
#X connect 158 0 169 1;
#X connect 159 0 169 2;
#X connect 160 0 169 4;
#X connect 161 0 169 3;
#X connect 162 0 83 0;
#X connect 163 1 164 0;
#X connect 164 0 165 0;
#X connect 164 0 167 0;
#X connect 165 0 166 0;
#X connect 165 0 112 0;
#X connect 166 0 127 0;
#X connect 167 0 168 0;
#X connect 168 0 127 0;
#X connect 169 0 128 0;
